<?xml version="1.0" standalone="no"?>
<!DOCTYPE svg PUBLIC "-//W3C//DTD SVG 20010904//EN"
 "http://www.w3.org/TR/2001/REC-SVG-20010904/DTD/svg10.dtd">
<svg version="1.0" xmlns="http://www.w3.org/2000/svg"
 width="3238.000000pt" height="599.000000pt" viewBox="0 0 3238.000000 599.000000"
 preserveAspectRatio="xMidYMid meet">
<metadata>
Created by potrace 1.15, written by Peter Selinger 2001-2017
</metadata>
<g transform="translate(0.000000,599.000000) scale(0.100000,-0.100000)"
fill="#000000" stroke="none">
<path d="M4825 5984 c-318 -34 -527 -89 -739 -197 -133 -68 -232 -144 -347
-265 l-96 -102 -119 -30 c-336 -84 -676 -119 -1379 -140 -502 -15 -723 -30
-980 -66 -135 -19 -397 -73 -408 -83 -11 -11 -39 -9 1213 -111 476 -39 820
-73 1141 -113 301 -38 286 -29 263 -162 -53 -296 -75 -636 -55 -814 23 -196
88 -386 182 -532 31 -48 37 -87 17 -94 -26 -9 -309 -55 -463 -74 -206 -26
-554 -55 -970 -81 -543 -33 -1010 -75 -1100 -99 l-30 -8 40 -11 c74 -20 309
-61 445 -76 238 -27 405 -36 880 -46 743 -16 1011 -33 1318 -85 137 -24 384
-81 443 -103 29 -11 442 -451 514 -547 63 -85 122 -201 147 -292 43 -155 19
-507 -46 -695 -31 -89 -47 -111 -91 -132 -106 -51 -749 -128 -1330 -161 -304
-17 -999 -46 -1060 -44 l-40 1 50 9 c100 17 287 29 600 39 344 11 530 27 693
59 142 28 269 68 276 87 3 9 6 57 6 107 0 69 16 183 65 457 36 201 65 383 65
405 0 97 -47 170 -128 202 -42 16 -81 18 -352 18 -347 0 -372 -4 -455 -77 -45
-40 -95 -123 -109 -183 -14 -56 -136 -809 -136 -837 0 -16 -6 -44 -14 -62 -14
-33 -18 -35 -123 -60 -337 -80 -602 -106 -1303 -131 -627 -22 -844 -39 -1130
-91 -160 -29 -194 -39 -170 -47 28 -10 303 -46 470 -61 194 -18 435 -32 795
-46 529 -21 818 -43 1085 -81 141 -20 402 -69 467 -88 20 -6 69 -46 130 -108
54 -54 124 -113 155 -131 148 -87 340 -147 573 -177 156 -21 535 -24 695 -6
389 44 694 160 916 348 51 43 68 71 55 91 -10 17 -330 74 -606 107 -123 15
-412 38 -815 65 -533 35 -981 77 -997 93 -4 5 193 34 352 52 195 22 461 42
850 65 752 43 1172 91 1495 168 l75 17 22 78 c12 42 34 146 48 230 76 459 76
791 -1 1027 -51 155 -156 335 -213 364 -37 20 -411 81 -641 105 -201 22 -513
44 -845 61 -671 34 -990 61 -1330 112 -73 11 -77 12 -45 19 169 38 506 71 960
94 661 34 924 66 1258 155 67 18 122 37 122 42 0 5 -100 118 -222 250 -123
132 -247 271 -275 310 -61 79 -114 187 -138 273 -36 135 -28 367 21 604 8 40
13 75 11 78 -17 16 -345 85 -537 112 -270 38 -435 52 -990 81 -525 28 -913 61
-933 80 -9 8 88 32 203 50 36 5 126 12 200 15 74 3 162 8 195 10 59 5 60 5 30
-11 -28 -14 -64 -51 -65 -65 0 -7 117 -23 285 -39 179 -17 382 -30 810 -50
798 -38 1157 -72 1509 -146 183 -38 196 -42 196 -63 0 -10 -30 -184 -66 -387
-46 -262 -64 -384 -61 -420 8 -75 38 -128 94 -161 l48 -28 330 0 c374 0 390 3
473 79 77 71 85 98 161 523 46 257 66 390 59 394 -37 23 -454 111 -683 144
l-100 14 125 -5 c375 -15 1040 -96 1075 -130 7 -8 11 -22 9 -31 -2 -10 -60
-342 -129 -737 -69 -396 -130 -727 -136 -737 -20 -38 -81 -53 -398 -99 -278
-40 -552 -64 -1141 -100 -502 -31 -845 -59 -1045 -85 -60 -8 -114 -15 -120
-15 -34 -2 42 -23 175 -48 283 -56 548 -81 1095 -107 646 -30 859 -50 1178
-112 128 -25 138 -28 144 -51 3 -15 -54 -366 -137 -843 l-144 -818 -110 -30
c-379 -104 -756 -146 -1531 -171 -637 -20 -1105 -55 -1078 -80 11 -11 235 -65
348 -84 244 -41 466 -60 965 -81 201 -8 428 -20 505 -25 329 -24 746 -93 773
-128 9 -12 11 -42 6 -113 -9 -124 -1 -161 42 -209 64 -71 88 -75 429 -75 208
0 312 4 340 12 130 40 209 148 231 314 8 56 14 52 -136 95 -285 83 -576 116
-1185 134 -635 19 -881 46 -1194 130 -62 17 -80 25 -65 30 24 9 437 35 869 55
643 29 985 55 1310 101 247 35 475 81 497 101 25 22 25 22 134 634 l98 547
345 5 c366 5 441 12 649 62 273 66 491 176 665 335 62 57 105 115 94 126 -9 9
-233 62 -347 83 -232 42 -487 64 -945 81 -356 13 -576 27 -740 45 -148 17
-416 63 -428 74 -17 16 481 61 1073 96 819 48 1126 77 1499 141 186 31 190 35
220 177 26 125 216 1203 231 1306 16 111 16 111 -182 149 -89 18 -188 37 -218
42 -105 18 123 1 325 -25 185 -24 393 -59 403 -70 3 -2 -53 -336 -124 -742
-101 -575 -133 -744 -149 -767 -25 -37 -50 -44 -340 -85 -361 -52 -589 -72
-1475 -126 -371 -23 -724 -54 -910 -81 -62 -10 -36 -18 125 -43 271 -42 557
-67 1075 -96 646 -36 929 -65 1272 -132 128 -24 138 -28 146 -52 6 -19 -28
-234 -129 -811 -76 -432 -141 -799 -144 -817 -5 -30 -8 -32 -93 -52 -403 -93
-745 -129 -1642 -171 -234 -11 -513 -27 -620 -35 -199 -16 -441 -43 -448 -50
-15 -14 366 -94 593 -124 195 -26 466 -47 850 -66 374 -18 563 -31 755 -51
194 -19 452 -62 467 -77 16 -15 17 -41 8 -137 -9 -97 5 -153 54 -201 20 -20
54 -43 76 -50 52 -17 2015 -26 2137 -10 76 10 132 32 173 68 70 61 115 170
115 278 l0 63 -137 26 c-172 32 -375 61 -608 86 -167 18 -172 19 -65 14 244
-11 666 -60 914 -106 148 -27 153 -32 136 -142 -21 -136 14 -220 109 -265 l56
-26 1070 0 1070 0 67 33 c75 37 110 73 145 149 28 61 49 169 39 206 -5 21 -15
27 -58 37 -185 40 -540 90 -853 119 -49 5 -73 9 -53 10 82 3 564 -42 793 -74
166 -23 388 -66 403 -78 10 -8 11 -35 6 -118 -8 -123 5 -175 54 -222 66 -63
52 -62 667 -65 933 -6 1195 16 1509 125 158 55 323 146 431 237 39 33 34 36
-114 75 -294 77 -596 114 -1161 141 -420 20 -658 40 -884 76 -151 24 -152 27
-24 52 277 54 568 83 1043 107 818 40 1124 69 1433 136 96 20 104 24 119 53
34 66 66 221 189 922 l127 725 -20 27 c-22 30 -26 31 -233 66 -249 43 -514 66
-960 86 -651 29 -908 52 -1215 112 -102 19 -155 38 -109 38 10 0 98 9 194 20
224 25 472 44 990 75 604 37 912 67 1240 121 165 27 214 48 225 97 7 30 241
1370 249 1428 10 71 -5 82 -159 113 -343 68 -556 90 -1245 126 -433 23 -662
42 -860 70 -156 23 -363 61 -357 66 12 12 360 48 712 74 307 23 416 24 215 4
-166 -18 -340 -46 -485 -80 -98 -23 -153 -44 -116 -44 7 0 67 -7 134 -15 196
-23 367 -34 792 -50 668 -25 956 -48 1244 -101 151 -27 394 -86 438 -106 l29
-13 -51 -739 -50 -740 -60 -18 c-103 -31 -373 -86 -525 -107 -259 -36 -454
-51 -965 -76 -489 -24 -738 -45 -965 -80 -186 -29 -186 -31 -25 -68 257 -61
499 -84 1013 -97 627 -16 803 -28 1055 -75 209 -39 427 -105 427 -131 0 -7
-25 -377 -55 -821 -42 -623 -58 -810 -69 -821 -16 -17 -44 -23 -266 -56 -241
-37 -487 -61 -1020 -101 -543 -40 -813 -66 -1043 -100 -246 -36 -302 -47 -286
-55 20 -12 317 -56 494 -74 196 -20 356 -32 775 -56 513 -30 740 -52 1005 -96
152 -25 286 -53 295 -61 2 -2 7 -55 10 -118 9 -151 30 -197 115 -240 l59 -30
525 0 c490 0 530 1 580 19 104 36 170 121 212 271 23 84 21 90 -35 124 -89 55
-524 105 -1201 141 -569 29 -810 50 -1083 91 -193 29 -196 32 -62 57 342 64
575 86 1225 117 520 24 756 45 1026 90 199 33 269 51 291 72 21 21 431 1631
426 1672 -2 21 -12 27 -53 38 -105 27 -324 64 -499 83 -99 11 -197 21 -216 24
-87 9 192 -6 340 -20 272 -24 679 -90 704 -115 8 -7 -146 -1581 -161 -1647 -8
-36 -38 -48 -183 -76 -325 -62 -526 -81 -1215 -116 -417 -21 -547 -31 -755
-56 -238 -28 -508 -80 -493 -94 11 -11 299 -56 473 -74 201 -21 375 -33 730
-51 589 -29 808 -47 1104 -91 262 -39 273 -46 267 -194 -3 -113 14 -167 68
-213 61 -51 76 -52 626 -52 509 0 510 0 567 23 101 41 168 138 199 290 20 96
28 91 -216 141 -311 65 -626 96 -1225 121 -459 19 -699 37 -950 71 -182 25
-200 30 -140 41 228 41 551 71 1172 108 783 46 1076 77 1436 152 98 20 105 23
118 52 16 35 474 1632 474 1652 0 15 -32 25 -201 59 -241 49 -629 92 -1004
110 -201 9 -225 13 -225 37 0 19 4 20 68 14 37 -3 211 -15 387 -26 627 -39
951 -72 1358 -136 155 -25 169 -29 177 -50 6 -16 -32 -256 -131 -821 -76 -439
-141 -808 -144 -820 -4 -18 -21 -25 -112 -46 -386 -90 -721 -125 -1613 -167
-645 -31 -1077 -68 -1053 -90 4 -5 55 -20 113 -34 343 -82 659 -118 1320 -151
536 -26 877 -58 1115 -103 113 -22 119 -30 102 -145 -24 -167 38 -255 196
-278 86 -12 1994 -11 2080 1 169 25 266 138 275 321 l4 86 -116 22 c-64 13
-187 33 -274 46 -186 28 -175 30 45 10 181 -17 249 -25 440 -56 157 -26 160
-30 145 -143 -18 -138 14 -218 106 -263 l57 -28 1065 0 c1021 0 1067 1 1120
19 74 26 149 101 179 180 25 68 40 200 22 210 -33 21 -431 83 -736 116 -142
15 -158 18 -75 14 321 -16 1011 -106 1048 -136 10 -9 12 -36 6 -122 -5 -92 -4
-118 10 -151 23 -55 61 -91 115 -112 43 -17 101 -18 776 -17 620 1 750 3 864
17 263 33 481 95 665 190 99 50 256 159 256 176 0 24 -357 100 -610 130 -236
29 -371 38 -845 61 -231 11 -501 27 -600 35 -190 16 -461 52 -483 64 -13 7
131 29 363 56 186 21 484 42 915 65 797 43 1106 73 1493 146 113 22 141 30
152 48 31 46 71 240 190 920 69 391 125 719 125 731 0 48 -34 62 -230 94 -311
51 -532 70 -1140 96 -553 24 -844 50 -1130 101 -132 24 -198 44 -143 44 12 0
79 7 150 15 209 24 468 43 1008 75 729 43 1029 71 1363 125 164 27 228 51 237
88 7 31 242 1382 250 1439 10 70 -4 80 -166 106 -304 49 -540 71 -1144 107
-498 29 -611 38 -870 66 -165 17 -467 64 -575 87 l-35 8 40 7 c153 25 565 58
1285 102 581 36 869 65 1205 121 179 30 185 31 185 50 0 24 -46 106 -94 166
-139 175 -387 291 -736 345 -103 16 -194 18 -895 18 l-780 0 -52 -24 c-60 -27
-126 -94 -153 -155 -11 -23 -29 -96 -40 -161 -24 -135 -36 -179 -53 -193 -29
-24 -501 -90 -869 -122 -301 -26 -347 -24 -128 6 256 34 701 109 771 130 12 3
22 36 38 127 24 142 27 234 7 280 -18 43 -77 94 -125 107 -27 7 -382 10 -1118
8 l-1078 -3 -46 -21 c-59 -28 -119 -87 -148 -146 -12 -25 -34 -114 -50 -197
-15 -84 -34 -158 -42 -166 -24 -24 -441 -86 -799 -119 -157 -15 -424 -30 -350
-20 440 59 908 138 926 157 14 15 54 249 54 313 -1 97 -58 171 -150 194 -32 8
-355 10 -1115 8 -1069 -3 -1070 -3 -1116 -24 -116 -54 -165 -136 -199 -334
-34 -196 -21 -182 -213 -214 -271 -44 -746 -98 -837 -95 -19 1 1 6 45 10 229
25 511 75 670 118 l41 11 34 126 c53 195 42 302 -36 363 -48 38 -93 42 -377
39 -263 -3 -273 -4 -317 -27 -61 -31 -107 -77 -134 -131 -13 -25 -42 -117 -66
-205 -23 -88 -43 -161 -45 -163 -8 -8 -259 -66 -380 -87 -272 -48 -523 -68
-1080 -85 -513 -16 -767 -35 -1015 -76 -118 -19 -312 -64 -323 -74 -13 -12
221 -49 468 -75 l140 -14 -250 5 c-137 2 -322 9 -410 15 -253 16 -575 55 -575
69 0 11 180 57 330 84 257 47 463 61 1080 76 407 10 571 20 771 45 233 30 503
94 519 124 12 24 34 320 26 362 -10 53 -45 100 -96 129 l-45 25 -465 0 c-521
0 -521 0 -602 -73 -60 -54 -84 -104 -127 -270 -22 -85 -45 -160 -52 -168 -27
-33 -332 -102 -569 -128 -162 -18 -480 -34 -795 -39 l-230 -4 134 13 c330 32
720 113 736 152 4 10 13 84 21 166 19 209 1 275 -88 326 l-43 25 -295 0 -295
0 -54 -30 c-115 -64 -158 -150 -174 -352 l-10 -132 -46 -15 c-299 -97 -663
-141 -1361 -166 -357 -13 -402 -11 -180 6 253 19 574 52 730 75 194 28 376 60
391 69 34 22 -80 196 -182 279 -159 128 -350 202 -641 248 -101 16 -192 18
-888 18 -878 0 -829 4 -921 -82 -61 -57 -85 -116 -115 -281 -13 -74 -30 -145
-38 -157 -15 -23 -71 -36 -336 -74 -259 -38 -813 -89 -841 -78 -8 3 2 6 21 6
86 2 844 123 921 146 12 4 21 38 38 138 34 208 29 262 -31 324 -64 66 -10 64
-1204 61 l-1079 -3 -57 -28 c-68 -33 -121 -91 -147 -161 -10 -28 -29 -107 -41
-176 -33 -188 -13 -171 -247 -209 -309 -49 -628 -84 -873 -95 -101 -5 -98 -5
75 19 389 54 772 124 785 144 3 6 17 76 30 154 34 206 17 272 -80 327 l-45 25
-1095 0 -1095 0 -53 -24 c-66 -30 -135 -105 -157 -171 -9 -26 -27 -108 -40
-181 -17 -90 -30 -138 -42 -150 -20 -19 -152 -44 -408 -79 -295 -39 -583 -63
-1220 -100 -512 -30 -1107 -81 -1124 -96 -10 -9 15 -16 155 -44 135 -26 312
-54 514 -79 69 -9 66 -9 -40 -5 -164 7 -432 32 -595 55 -156 21 -367 60 -361
66 16 16 546 63 1101 98 663 42 992 75 1320 133 l150 27 3 30 c6 68 -157 252
-294 333 -136 81 -307 135 -531 169 -105 16 -198 18 -868 18 l-750 0 -49 -24
c-112 -56 -155 -130 -191 -332 -14 -79 -32 -153 -40 -165 -12 -18 -41 -25
-207 -52 -359 -58 -648 -85 -1338 -127 -633 -38 -1162 -85 -1183 -104 -13 -13
314 -76 568 -109 l70 -9 -60 -2 c-79 -1 -508 25 -705 44 -251 24 -280 27 -280
36 0 15 281 70 475 93 181 21 372 34 715 46 602 21 875 49 1145 116 91 23 225
63 233 70 7 5 -38 95 -76 152 -49 71 -159 175 -235 220 -130 78 -300 134 -508
167 -100 16 -592 29 -694 19z m13705 -751 c-201 -21 -650 -113 -650 -133 0
-14 236 -51 475 -74 190 -19 122 -19 -227 -1 -449 23 -883 59 -901 75 -9 8
137 41 303 69 217 37 637 68 915 68 66 0 104 -2 85 -4z m3560 -4 c-418 -27
-898 -74 -913 -88 -5 -5 38 -18 95 -30 233 -48 497 -81 803 -101 256 -16 268
-18 65 -14 -513 13 -828 44 -1115 111 -132 31 -128 33 91 62 208 26 337 38
569 51 105 6 213 12 240 13 28 2 104 4 170 4 l120 0 -125 -8z m-11735 -66
c-121 -14 -152 -20 -143 -28 8 -8 302 -64 443 -84 209 -30 396 -48 740 -71
756 -50 959 -68 1245 -115 192 -32 190 -31 190 -60 0 -13 -56 -344 -125 -735
-69 -392 -125 -716 -125 -720 0 -5 -11 -22 -25 -38 -29 -35 -44 -39 -285 -76
-329 -51 -629 -78 -1270 -116 -551 -32 -961 -66 -1170 -96 -62 -10 -36 -18
125 -43 265 -41 572 -68 1075 -96 646 -36 952 -67 1278 -132 114 -22 135 -30
144 -48 13 -29 -268 -1644 -289 -1662 -21 -16 -239 -68 -413 -97 -281 -48
-522 -67 -1115 -91 -214 -9 -471 -22 -569 -30 -99 -8 -182 -12 -185 -10 -2 3
9 5 25 6 16 0 47 6 69 14 34 11 -33 13 -475 15 l-515 3 210 13 c543 34 819 63
1059 110 123 25 135 29 150 55 10 17 67 316 151 791 74 419 135 763 135 765 0
1 226 3 503 5 l502 3 60 28 c72 34 105 63 105 92 0 20 -12 25 -107 48 -314 76
-600 106 -1213 127 -372 13 -618 27 -790 46 -175 19 -432 63 -446 76 -13 14
510 60 1051 93 623 37 856 56 1130 90 190 24 439 67 453 78 18 14 15 61 -6 80
-49 45 -77 47 -603 47 l-499 0 5 23 c7 29 245 1379 245 1388 0 4 -8 9 -17 12
-10 2 -57 16 -105 30 -293 87 -552 117 -1213 142 -418 16 -567 26 -775 51
-113 13 -369 61 -445 82 -19 5 104 11 330 15 945 18 1411 28 1425 31 8 2 56 4
105 4 l90 0 -120 -15z m2783 -2 c-70 -9 -129 -19 -133 -22 -7 -8 157 -43 320
-69 289 -47 509 -68 1085 -105 637 -41 1172 -103 1211 -142 10 -10 -244 -1471
-262 -1504 -16 -31 -59 -45 -234 -73 -359 -58 -637 -84 -1330 -126 -275 -17
-583 -37 -685 -45 -199 -17 -521 -53 -528 -59 -8 -8 185 -41 388 -65 175 -22
428 -41 850 -66 461 -27 590 -36 815 -61 263 -28 593 -87 607 -108 4 -6 8 -22
8 -36 1 -49 -283 -1635 -293 -1642 -18 -11 -216 -67 -332 -93 -237 -53 -485
-80 -893 -95 -152 -6 -398 -15 -547 -20 -148 -6 -335 -17 -415 -26 -139 -14
-392 -54 -455 -72 -26 -8 -27 -10 -10 -15 22 -7 318 -43 460 -56 53 -5 72 -9
45 -10 -57 -1 -448 32 -640 55 l-145 18 71 22 c95 30 187 41 441 54 117 6 218
12 225 15 7 2 40 10 73 17 53 11 -4 14 -485 18 l-545 5 289 18 c472 29 766 62
1011 115 75 16 81 19 96 52 10 19 77 376 150 792 l133 757 501 3 c494 3 501 4
557 26 60 24 121 82 112 106 -3 9 -48 25 -112 40 -321 76 -605 106 -1212 126
-379 13 -616 27 -790 46 -153 16 -421 62 -433 74 -17 16 481 61 1038 95 785
47 1041 71 1413 132 164 26 192 37 192 73 0 25 -52 67 -98 80 -23 6 -222 10
-529 10 -271 0 -493 3 -493 8 -1 4 54 321 122 705 104 591 120 699 108 707
-22 13 -221 67 -335 89 -231 46 -452 66 -985 86 -427 16 -586 27 -780 51 -127
15 -396 66 -440 82 -15 6 105 11 331 16 983 18 1415 28 1424 31 6 2 51 3 100
3 l90 0 -127 -17z m11000 0 c-70 -9 -129 -19 -133 -22 -7 -8 157 -43 320 -69
279 -45 513 -68 1010 -100 593 -38 864 -65 1125 -110 152 -27 150 -26 150 -59
0 -40 -249 -1450 -259 -1470 -24 -43 -49 -52 -223 -81 -353 -58 -651 -86
-1398 -130 -664 -39 -1079 -73 -1200 -99 l-35 -8 40 -11 c116 -32 382 -72 720
-106 66 -6 -266 4 -460 15 -310 17 -754 75 -781 102 -13 12 551 60 1086 92
488 29 640 39 870 60 308 29 723 88 748 108 18 14 15 61 -5 79 -50 43 -47 43
-583 48 l-516 5 122 690 c68 380 123 697 123 706 2 31 -321 111 -579 143 -204
25 -353 35 -775 51 -426 16 -585 26 -785 51 -113 13 -370 61 -445 82 -19 5
106 11 335 15 953 18 1427 28 1445 31 11 2 63 3 115 3 l95 1 -127 -17z m2747
-1 c-71 -9 -132 -18 -134 -19 -14 -4 22 -14 157 -41 310 -61 602 -92 1272
-135 416 -27 650 -46 840 -71 175 -22 359 -56 376 -68 13 -10 0 -99 -114 -747
-71 -404 -135 -746 -141 -758 -19 -34 -60 -47 -241 -75 -366 -57 -649 -83
-1380 -126 -546 -32 -803 -51 -1015 -75 -195 -22 -220 -27 -204 -36 38 -21
395 -78 649 -104 l135 -14 -155 5 c-245 8 -513 24 -665 40 -170 18 -436 62
-450 75 -5 5 -1 9 12 9 12 0 79 7 150 15 217 25 467 43 998 75 702 42 1057 75
1384 130 157 27 159 27 166 50 11 33 -4 59 -48 83 -42 22 -46 22 -554 25 -314
2 -513 6 -513 12 0 14 240 1372 246 1391 4 14 -17 22 -108 48 -335 92 -571
120 -1243 146 -556 21 -761 40 -1010 90 -249 51 -249 51 145 58 1099 22 1416
29 1425 32 6 2 42 3 80 3 65 0 60 -2 -60 -18z m-21265 -55 c1339 -86 1734
-115 2195 -161 368 -37 792 -92 815 -106 29 -19 43 -61 35 -110 -4 -24 -54
-318 -111 -654 -98 -580 -127 -717 -156 -756 -9 -12 -60 -27 -164 -48 -433
-87 -848 -128 -1659 -165 -664 -30 -980 -51 -1277 -85 -143 -16 -182 -17 -265
-7 -98 11 -98 11 -48 19 203 31 505 53 930 68 715 25 1036 56 1360 134 114 28
296 84 308 96 10 8 257 1417 257 1461 0 27 -5 30 -84 54 -189 58 -450 103
-711 124 -71 6 -312 18 -535 26 -589 22 -788 40 -1065 96 -153 31 -198 45
-110 35 28 -4 156 -13 285 -21z m9480 -25 c463 -27 850 -63 1738 -160 348 -39
640 -70 648 -70 8 0 26 -11 39 -25 19 -18 25 -35 25 -67 0 -57 -239 -1420
-251 -1435 -14 -16 -276 -78 -460 -107 -279 -46 -514 -65 -1089 -91 -406 -18
-695 -39 -895 -65 -208 -27 -281 -41 -264 -50 22 -13 311 -67 448 -84 186 -24
458 -44 836 -61 550 -24 789 -44 1040 -85 233 -37 275 -53 275 -102 0 -37
-231 -1336 -250 -1406 -11 -41 -30 -92 -41 -115 -45 -89 -51 -93 -182 -136
-277 -89 -614 -130 -1087 -131 -221 -1 -558 -15 -690 -30 -52 -6 -142 -10
-200 -8 -88 3 -58 6 184 21 454 28 766 62 976 108 106 23 87 -45 250 882 110
630 141 824 134 845 -8 23 -20 30 -92 49 -289 76 -632 113 -1237 133 -378 13
-611 26 -790 46 -154 17 -347 48 -410 66 l-40 12 55 7 c238 34 606 67 1250
114 840 61 1273 109 1343 148 l41 22 127 725 c70 399 131 741 134 760 l6 36
-133 32 c-366 87 -692 123 -1463 162 -528 27 -918 59 -934 76 -8 9 747 -3 959
-16z m13435 0 c684 -23 1341 -69 1960 -136 357 -38 775 -93 796 -104 26 -15
39 -42 39 -87 1 -21 -54 -353 -122 -739 l-122 -701 -36 -21 c-64 -37 -513 -96
-925 -122 -93 -5 -312 -17 -485 -25 -400 -19 -612 -32 -820 -51 -176 -16 -495
-59 -545 -73 l-30 -8 40 -11 c71 -20 326 -61 475 -76 185 -20 431 -33 840 -46
518 -17 766 -37 1049 -86 269 -46 321 -65 321 -120 0 -45 -231 -1342 -251
-1409 -22 -74 -61 -159 -87 -188 -20 -23 -201 -80 -355 -111 -257 -53 -520
-72 -1112 -79 l-330 -5 165 14 c239 19 427 42 578 70 139 25 185 42 201 72 12
22 291 1601 291 1646 0 19 -6 39 -13 45 -18 14 -189 54 -342 80 -261 44 -524
64 -1035 81 -419 13 -648 27 -861 51 -184 20 -392 54 -416 68 -31 17 531 66
1162 101 702 39 1021 68 1390 126 120 19 169 31 195 48 l35 23 133 754 c73
415 132 757 132 761 0 3 -51 18 -112 32 -350 81 -639 111 -1343 141 -546 23
-836 45 -1055 79 l-85 14 190 1 c105 0 325 -4 490 -9z m-9141 -115 c402 -26
681 -65 941 -130 76 -19 140 -36 141 -38 3 -3 -364 -1412 -382 -1469 -9 -29
-49 -42 -245 -82 -267 -54 -531 -83 -949 -106 -219 -12 -348 -11 -185 1 194
14 406 39 565 65 194 32 450 92 455 108 2 6 31 328 65 716 33 388 62 723 65
746 l6 41 -78 21 c-188 51 -507 105 -818 137 l-140 14 165 -5 c91 -3 268 -11
394 -19z m2181 -5 c210 -15 413 -38 575 -66 161 -27 397 -82 405 -93 4 -8
-388 -1487 -397 -1496 -7 -7 -149 -41 -268 -64 -280 -55 -660 -92 -1070 -105
l-155 -5 175 14 c211 18 456 48 605 76 89 16 355 77 362 83 1 1 31 323 67 716
36 393 68 733 71 756 l6 41 -73 21 c-185 54 -395 96 -648 127 l-115 14 160 -5
c88 -2 223 -9 300 -14z m1285 5 c333 -24 556 -52 795 -101 153 -32 153 -32
159 -52 5 -14 -203 -1231 -244 -1438 -17 -81 -33 -90 -205 -119 -232 -39 -754
-87 -930 -84 -48 1 -28 5 100 25 167 24 369 64 466 91 l57 15 215 751 c118
414 212 755 208 759 -9 10 -160 52 -291 81 -141 32 -298 55 -484 72 -199 18
-103 18 154 0z m-1603 -187 c-3 -18 -49 -352 -102 -743 -88 -642 -99 -712
-118 -732 -18 -18 -47 -26 -158 -42 -171 -26 -596 -71 -646 -70 -21 0 52 11
162 24 393 46 455 60 475 108 5 12 80 344 165 737 86 393 158 723 161 733 4
11 15 17 36 17 29 0 30 -2 25 -32z m198 -1678 c-279 -37 -649 -116 -610 -130
11 -4 126 -15 255 -24 299 -22 300 -22 300 -46 0 -11 -7 -20 -15 -20 -48 0
-460 33 -570 46 -235 27 -525 77 -513 89 7 7 300 45 463 59 94 8 265 20 380
26 116 6 235 12 265 13 167 9 182 5 45 -13z m-3610 -16 c-133 -13 -393 -49
-443 -61 -40 -10 -11 -21 123 -47 240 -46 465 -69 835 -86 746 -33 886 -43
1125 -81 129 -21 292 -56 394 -85 47 -13 52 -18 47 -37 -3 -12 -85 -384 -181
-827 -160 -733 -178 -807 -201 -827 -14 -13 -36 -23 -49 -23 -22 0 -23 2 -11
28 21 43 202 1636 190 1670 -8 24 -18 29 -89 44 -308 66 -569 92 -1220 123
-358 17 -634 37 -815 60 -131 17 -388 64 -409 75 -34 18 574 88 769 88 61 0
50 -3 -65 -14z m1170 9 c-111 -10 -575 -64 -604 -69 -18 -4 -29 -10 -24 -14
19 -18 375 -77 628 -105 l130 -14 -115 5 c-120 5 -352 27 -480 44 -128 18
-355 62 -364 71 -6 6 -4 9 6 9 9 0 96 9 193 21 253 30 551 57 615 56 42 0 46
-1 15 -4z m965 0 c-19 -1 -87 -8 -150 -14 -120 -11 -388 -46 -428 -56 -13 -3
-20 -9 -15 -13 10 -10 246 -55 388 -74 162 -22 170 -25 60 -20 -145 8 -360 32
-520 59 -204 35 -209 38 -74 58 237 35 563 65 699 64 41 0 59 -2 40 -4z m5365
-254 c289 -18 532 -47 763 -90 98 -19 115 -25 124 -45 8 -18 -20 -197 -132
-841 -79 -450 -144 -819 -146 -821 -6 -9 -344 -75 -494 -96 -319 -46 -551 -64
-1225 -96 -668 -32 -664 -32 -495 -12 38 4 -154 9 -470 12 l-535 5 305 18
c373 22 573 40 795 73 254 37 324 54 347 85 15 19 50 201 154 785 73 417 134
762 134 766 0 4 226 8 503 10 447 3 507 6 548 21 61 24 119 73 119 101 0 20
-10 25 -89 44 -125 30 -344 69 -486 86 l-120 15 120 -5 c66 -3 192 -9 280 -15z
m2790 0 c381 -23 865 -91 887 -123 4 -6 8 -25 8 -41 0 -32 -278 -1626 -285
-1633 -9 -9 -238 -64 -363 -87 -274 -51 -565 -75 -1187 -100 -209 -8 -444 -20
-523 -26 -79 -6 -146 -8 -149 -5 -4 3 3 6 15 6 11 0 29 3 39 8 10 4 -216 9
-502 12 l-520 5 220 13 c643 38 1129 102 1193 157 24 21 32 58 161 791 l136
769 500 5 c487 5 501 6 555 27 65 26 123 76 118 101 -2 12 -27 23 -93 40 -110
28 -330 66 -490 86 l-120 15 120 -5 c66 -3 192 -9 280 -15z m-6467 -64 c156
-26 320 -59 328 -68 3 -2 -6 -49 -20 -103 -14 -55 -102 -422 -196 -817 -94
-395 -177 -732 -185 -748 -9 -16 -24 -29 -34 -29 -11 0 -27 -3 -36 -7 -16 -6
-16 -4 -1 18 19 30 233 1641 222 1682 -7 29 -22 35 -176 71 -137 32 -93 32 98
1z m1912 -1962 c-19 -2 -105 -10 -190 -19 -187 -18 -224 -24 -213 -34 10 -9
190 -53 323 -79 69 -14 84 -19 55 -20 -43 -1 -371 29 -549 50 l-109 13 54 18
c81 28 241 57 359 67 99 8 345 12 270 4z m-13840 -20 c-296 -48 -365 -62 -353
-73 8 -7 193 -31 438 -55 l140 -14 -115 5 c-141 6 -395 28 -594 51 -110 12
-142 19 -125 26 63 23 201 49 302 56 115 8 352 12 307 4z m16545 0 c-78 -10
-331 -56 -349 -63 -20 -7 -20 -8 4 -14 14 -4 122 -17 240 -30 118 -13 199 -24
179 -25 -37 -1 -378 30 -558 50 -66 8 -98 15 -88 20 34 20 195 51 300 58 113
8 327 11 272 4z"/>
</g>
</svg>
